<?xml version="1.0" encoding="utf-8"?>
<!-- Generator: Adobe Illustrator 25.4.1, SVG Export Plug-In . SVG Version: 6.00 Build 0)  -->
<svg version="1.1" id="Capa_1" xmlns="http://www.w3.org/2000/svg" xmlns:xlink="http://www.w3.org/1999/xlink" x="0px" y="0px"
	 viewBox="0 0 595.3 841.9" style="enable-background:new 0 0 595.3 841.9;" xml:space="preserve">
<g>
	<path d="M519.3,197.7l-27.9,40.9c-14.9-10-29.9-18-43.8-24c-13.9-6-28.9-9-42.8-9c-13.9,0-24.9,3-31.9,8c-7,6-11,13-11,21v1
		c0,5,1,10,3,14c2,4,6,8,11,11c5,3,12.9,6,21.9,9c9,3,20.9,6,35.9,10c16.9,4,31.9,9,44.8,15c12.9,6,23.9,12,33.9,20
		c9,8,15.9,17,20.9,26.9c3,6,5,13,6,21c4-18,6-35.9,6-55.9C544.2,268.5,535.2,231.6,519.3,197.7z"/>
	<path d="M70.1,343.4c9-7,19.9-12,31.9-15c12.9-3,25.9-5,41.8-5c12.9,0,23.9,1,33.9,3c10,2,18.9,4,27.9,8v-4c0-15-5-26.9-13.9-34.9
		c-9-8-22.9-12-40.8-12c-13.9,0-25.9,1-36.9,4c-11,2-21.9,6-33.9,10l-17.9-54.9c13.9-6,28.9-11,43.8-15s33.9-6,54.8-6
		c39.8,0,68.7,10,86.7,28.9c17.9,19,26.9,45.9,26.9,80.8v99.8l42.8-51.9c14.9,12,30.9,22,46.8,29.9c15.9,7,33.9,11,52.8,11
		c14.9,0,26.9-3,35.9-8c8-6,12.9-13,12.9-23v-1c0-5-1-9-3-13c-2-4-5-7-10-10c-5-3-12-6-20.9-10c-9-3-19.9-7-33.9-10
		c-16.9-4-31.9-9-45.8-14s-24.9-11-34.9-19c-10-7-16.9-17-21.9-27.9c-5-11-8-25-8-41.9v-1c0-15,3-28.9,9-40.9
		c6-12,13.9-23,23.9-31.9c10-9,22.9-16,36.9-20c13.9-5,29.9-7,46.8-7c23.9,0,46.8,4,67.7,11c9,3,17.9,7,25.9,11
		C452.6,99.9,377.9,58.9,294.2,58.9c-137.5,0-249,111.8-249,249.5c0,19,2,37.9,6,55.9C57.2,355.4,63.1,349.4,70.1,343.4z"/>
	<path d="M466.5,477.1c-14.9,5-30.9,7-49.8,7c-24.9,0-49.8-4-74.7-13c-23.9-9-46.8-22-66.7-39.9v48.9h-69.7v-27.9
		c-9,10-19.9,18-31.9,24c-12,6-27.9,9-44.8,9c-4,0-7,0-11,0c44.8,45.9,107.6,73.9,176.3,73.9c75.7,0,143.4-33.9,188.2-86.8
		C478.5,473.1,472.5,475.1,466.5,477.1z"/>
	<path d="M161.7,367.3c-15.9,0-27.9,3-36.9,9c-9,6-12.9,15-12.9,25.9v1c0,10,4,18,11,23s16.9,8,28.9,8c16.9,0,30.9-4,40.8-12
		c10-8,15.9-19,15.9-31.9v-13c-6-3-12.9-5-20.9-7C178.7,368.3,170.7,367.3,161.7,367.3z"/>
</g>
</svg>
